# xmcd
#
# Track frame offsets:
#	183
#	10600
#	21710
#	32933
#	43793
#	54768
#	67245
#	79905
#	95338
#	105315
#	118243
#	129918
#
# Disc length: 1906 seconds
#
# Revision: 2
# Processed by: cddbd v1.5.2PL0 Copyright (c) Steve Scherf et al.
# Submitted via: audiograbber 1.83.01
#
DISCID=9c07700c
DTITLE=Howlin' Wolf - Off The Record
DYEAR=1989
DGENRE=Blues
TTITLE0=Shake For Me
TTITLE1=Red Rooster
TTITLE2=You'll Be Mine
TTITLE3=Who's Been Talkin'
TTITLE4=Wang Dang Doodle
TTITLE5=Little Baby
TTITLE6=Spoonful
TTITLE7=Goin' Down Slow
TTITLE8=Down In The Bottom
TTITLE9=Back Door Man
TTITLE10=Hawlin' For My Baby
TTITLE11=Tell Me
EXTD=\n
EXTT0=
EXTT1=
EXTT2=
EXTT3=
EXTT4=
EXTT5=
EXTT6=
EXTT7=
EXTT8=
EXTT9=
EXTT10=
EXTT11=
PLAYORDER=
